<svg width="16" height="17" viewBox="0 0 16 17" fill="none" xmlns="http://www.w3.org/2000/svg">
<path fill-rule="evenodd" clip-rule="evenodd" d="M13.8999 8.5C13.8999 5.24152 11.2584 2.6 7.9999 2.6C4.74142 2.6 2.0999 5.24152 2.0999 8.5C2.0999 11.7585 4.74142 14.4 7.9999 14.4C11.2584 14.4 13.8999 11.7585 13.8999 8.5ZM7.9999 1.6C11.8107 1.6 14.8999 4.68923 14.8999 8.5C14.8999 12.3108 11.8107 15.4 7.9999 15.4C4.18914 15.4 1.0999 12.3108 1.0999 8.5C1.0999 4.68923 4.18914 1.6 7.9999 1.6ZM10.3785 6.33537C10.6536 6.36037 10.8562 6.60358 10.8312 6.87859L10.4979 10.5453C10.476 10.7857 10.2856 10.9761 10.0452 10.998L6.37852 11.3313C6.10351 11.3563 5.86031 11.1536 5.8353 10.8786C5.8103 10.6036 6.01298 10.3604 6.28798 10.3354L8.89154 10.0987L5.64636 6.85354C5.4511 6.65828 5.4511 6.34169 5.64636 6.14643C5.84163 5.95117 6.15821 5.95117 6.35347 6.14643L9.59865 9.39161L9.83533 6.78805C9.86033 6.51304 10.1035 6.31037 10.3785 6.33537Z" fill="white"/>
</svg>
