<svg width="16" height="16" viewBox="0 0 16 16" fill="none" xmlns="http://www.w3.org/2000/svg">
<path fill-rule="evenodd" clip-rule="evenodd" d="M13.8999 8.00001C13.8999 4.74153 11.2584 2.10001 7.9999 2.10001C4.74142 2.10001 2.0999 4.74153 2.0999 8.00001C2.0999 11.2585 4.74142 13.9 7.9999 13.9C11.2584 13.9 13.8999 11.2585 13.8999 8.00001ZM7.9999 1.10001C11.8107 1.10001 14.8999 4.18924 14.8999 8.00001C14.8999 11.8108 11.8107 14.9 7.9999 14.9C4.18914 14.9 1.0999 11.8108 1.0999 8.00001C1.0999 4.18924 4.18914 1.10001 7.9999 1.10001ZM10.3785 5.83538C10.6536 5.86038 10.8562 6.10359 10.8312 6.3786L10.4979 10.0453C10.476 10.2857 10.2856 10.4761 10.0452 10.498L6.37852 10.8313C6.10351 10.8563 5.86031 10.6536 5.8353 10.3786C5.8103 10.1036 6.01298 9.86041 6.28798 9.83541L8.89154 9.59872L5.64636 6.35355C5.4511 6.15828 5.4511 5.8417 5.64636 5.64644C5.84163 5.45118 6.15821 5.45118 6.35347 5.64644L9.59865 8.89162L9.83533 6.28806C9.86033 6.01305 10.1035 5.81038 10.3785 5.83538Z" fill="#5661F6"/>
</svg>
