<svg width="18" height="18" viewBox="0 0 18 18" fill="none" xmlns="http://www.w3.org/2000/svg">
<path fill-rule="evenodd" clip-rule="evenodd" d="M11.7435 6.25647C10.9172 5.43019 9.72072 5.15622 8.325 5.15622H6.84377C6.84631 3.93916 7.09658 3.30288 7.44975 2.94972C7.80472 2.59474 8.44572 2.34372 9.675 2.34372H12.825C14.0543 2.34372 14.6953 2.59474 15.0503 2.94972C15.4052 3.30469 15.6562 3.94569 15.6562 5.17497V8.32497C15.6562 9.55425 15.4052 10.1952 15.0503 10.5502C14.6971 10.9034 14.0608 11.1537 12.8437 11.1562V9.67497C12.8437 8.27925 12.5698 7.08275 11.7435 6.25647ZM12.8437 12.8437C14.2314 12.8413 15.4209 12.566 16.2435 11.7435C17.0698 10.9172 17.3437 9.72069 17.3437 8.32497V5.17497C17.3437 3.77925 17.0698 2.58275 16.2435 1.75647C15.4172 0.930196 14.2207 0.656219 12.825 0.656219H9.675C8.27928 0.656219 7.08278 0.930196 6.2565 1.75647C5.43392 2.57905 5.15871 3.76855 5.15627 5.15624C3.76857 5.15868 2.57908 5.43389 1.7565 6.25647C0.930226 7.08275 0.65625 8.27925 0.65625 9.67497V12.825C0.65625 14.2207 0.930226 15.4172 1.7565 16.2435C2.58278 17.0697 3.77928 17.3437 5.175 17.3437H8.325C9.72072 17.3437 10.9172 17.0697 11.7435 16.2435C12.5661 15.4209 12.8413 14.2314 12.8437 12.8437ZM6 6.84372L5.175 6.84372C3.94572 6.84372 3.30472 7.09474 2.94975 7.44972C2.59477 7.80469 2.34375 8.44569 2.34375 9.67497V12.825C2.34375 14.0542 2.59477 14.6952 2.94975 15.0502C3.30472 15.4052 3.94572 15.6562 5.175 15.6562H8.325C9.55428 15.6562 10.1953 15.4052 10.5503 15.0502C10.9052 14.6952 11.1562 14.0542 11.1562 12.825V12V9.67497C11.1562 8.44569 10.9052 7.80469 10.5503 7.44971C10.1953 7.09474 9.55428 6.84372 8.325 6.84372H6Z" fill="black" fill-opacity="0.44"/>
</svg>
