<svg width="20" height="19" viewBox="0 0 20 19" xmlns="http://www.w3.org/2000/svg">
<path fill-rule="evenodd" clip-rule="evenodd" d="M12.4343 6.61618C11.6267 6.00571 10.5501 5.79439 9.31979 5.79439H7.82759C7.83015 4.56832 8.08228 3.92733 8.43806 3.57155C8.79566 3.21395 9.4414 2.96106 10.6798 2.96106H13.8531C15.0915 2.96106 15.7373 3.21395 16.0949 3.57155C16.4525 3.92915 16.7053 4.5749 16.7053 5.81328V8.98662C16.7053 10.225 16.4525 10.8708 16.0949 11.2284C15.7391 11.5841 15.0981 11.8363 13.872 11.8388V10.3466C13.872 8.94056 13.596 7.7352 12.7636 6.9028C12.6596 6.79875 12.5497 6.70339 12.4343 6.61618ZM13.872 13.5388C15.27 13.5364 16.4683 13.2591 17.2969 12.4304C18.1293 11.598 18.4053 10.3927 18.4053 8.98662V5.81328C18.4053 4.40723 18.1293 3.20186 17.2969 2.36947C16.4645 1.53707 15.2592 1.26106 13.8531 1.26106H10.6798C9.27373 1.26106 8.06837 1.53707 7.23597 2.36947C6.4073 3.19814 6.13005 4.39644 6.12759 5.79441C4.72962 5.79688 3.53131 6.07413 2.70264 6.9028C1.87024 7.7352 1.59424 8.94056 1.59424 10.3466V13.5199C1.59424 14.926 1.87024 16.1314 2.70264 16.9638C3.53504 17.7962 4.7404 18.0722 6.14646 18.0722H9.31979C10.7258 18.0722 11.9312 17.7962 12.7636 16.9638C13.5923 16.1351 13.8695 14.9368 13.872 13.5388ZM6.97757 7.49439L6.14646 7.49439C4.90807 7.49439 4.26232 7.74728 3.90472 8.10488C3.54712 8.46248 3.29424 9.10823 3.29424 10.3466V13.5199C3.29424 14.7583 3.54712 15.4041 3.90472 15.7617C4.26232 16.1193 4.90807 16.3722 6.14646 16.3722H9.31979C10.5582 16.3722 11.2039 16.1193 11.5615 15.7617C11.9191 15.4041 12.172 14.7583 12.172 13.5199L12.172 12.6888V10.3466C12.172 9.10823 11.9191 8.46248 11.5615 8.10488C11.2039 7.74728 10.5582 7.49439 9.31979 7.49439H6.97757Z" fill-opacity="0.64"/>
</svg>
