<svg width="20" height="19" viewBox="0 0 20 19" xmlns="http://www.w3.org/2000/svg">
<path fill-rule="evenodd" clip-rule="evenodd" d="M6.76592 1.8855C6.10886 1.8855 5.46413 2.12755 4.95121 2.50286C4.44597 2.87255 4.01083 3.41483 3.83422 4.08305L2.03262 9.56292C1.76465 10.3233 1.85498 11.1117 2.30385 11.7208C2.7509 12.3275 3.47596 12.6522 4.27259 12.6522L7.19891 12.6522L6.83642 14.9721C6.60444 16.0929 7.32553 17.2333 8.37128 17.5902C8.89223 17.7809 9.43378 17.7351 9.87557 17.5832C10.3153 17.4321 10.7484 17.1443 11.0233 16.733L11.0243 16.7314L12.9888 13.8086C13.0667 13.9287 13.1604 14.0419 13.2728 14.1456C13.7581 14.5936 14.4075 14.6922 15.0016 14.6922L15.7571 14.6922C16.3512 14.6922 17.0006 14.5936 17.4859 14.1456C17.9879 13.6822 18.1182 13.0313 18.1182 12.4066L18.1182 5.00217C18.1182 4.3775 17.9879 3.72654 17.4859 3.26314C17.0006 2.81517 16.3512 2.71661 15.7571 2.71661L15.0016 2.71661C14.4075 2.71661 13.7581 2.81517 13.2728 3.26314C13.161 3.36636 13.0676 3.47888 12.99 3.59834L11.6275 2.54348C11.3306 2.26937 10.9457 2.11745 10.645 2.03154C10.3077 1.93516 9.94579 1.8855 9.63704 1.8855L6.76592 1.8855ZM12.6405 5.47764L10.5522 3.86095L10.5096 3.82797L10.4715 3.78987L10.4715 3.78986C10.4705 3.78903 10.3889 3.72639 10.178 3.66613C9.98641 3.6114 9.78161 3.5855 9.63704 3.5855L6.76592 3.5855C6.51632 3.5855 6.21661 3.68345 5.95508 3.87481C5.69416 4.06572 5.53082 4.30501 5.47499 4.52832L5.4675 4.55829L5.45785 4.58764L3.64452 10.1032L3.64115 10.1134L3.63752 10.1236C3.53252 10.4176 3.5946 10.6067 3.67244 10.7124C3.75429 10.8235 3.93589 10.9522 4.27259 10.9522L7.29481 10.9522C8.25061 10.9522 9.04261 11.7735 8.89183 12.829L8.89025 12.8401L8.89018 12.8401L8.5124 15.2578L8.50822 15.2846L8.50235 15.311C8.45248 15.5354 8.62663 15.8835 8.92361 15.9825L8.93853 15.9874L8.95327 15.993C9.03219 16.0225 9.16451 16.03 9.32294 15.9756C9.48709 15.9191 9.58234 15.8296 9.60979 15.7884L9.61158 15.7858L12.6405 11.2794L12.6405 5.47764ZM14.3405 5.00217C14.3405 4.79325 14.3635 4.66517 14.3873 4.59105C14.3985 4.55599 14.4088 4.53637 14.4147 4.52681C14.4201 4.51792 14.4238 4.51428 14.4259 4.51231C14.4317 4.50695 14.5378 4.41661 15.0016 4.41661L15.7571 4.41661C16.2209 4.41661 16.327 4.50695 16.3328 4.51231C16.335 4.51428 16.3386 4.51792 16.344 4.52681C16.3499 4.53637 16.3602 4.55599 16.3714 4.59105C16.3952 4.66517 16.4183 4.79325 16.4183 5.00217L16.4183 12.4066C16.4183 12.6155 16.3952 12.7436 16.3714 12.8177C16.3602 12.8528 16.3499 12.8724 16.344 12.882C16.3386 12.8909 16.335 12.8945 16.3328 12.8965C16.327 12.9018 16.2209 12.9922 15.7571 12.9922L15.0016 12.9922C14.5378 12.9922 14.4317 12.9018 14.4259 12.8965C14.4238 12.8945 14.4201 12.8909 14.4147 12.882C14.4088 12.8724 14.3985 12.8528 14.3873 12.8177C14.3635 12.7436 14.3405 12.6155 14.3405 12.4066L14.3405 5.00217Z" fill-opacity="0.64"/>
</svg>
