<svg width="18" height="18" viewBox="0 0 18 18" fill="none" xmlns="http://www.w3.org/2000/svg">
<path fill-rule="evenodd" clip-rule="evenodd" d="M5.79008 1.14371C5.13784 1.14371 4.49786 1.38398 3.98871 1.75653C3.48718 2.1235 3.05524 2.6618 2.87993 3.3251L1.09158 8.76468C0.825572 9.51944 0.915244 10.302 1.36081 10.9067C1.80457 11.509 2.5243 11.8312 3.31508 11.8312H6.21988L5.86005 14.1341C5.62978 15.2466 6.34557 16.3786 7.38363 16.733C7.90075 16.9222 8.43832 16.8768 8.87686 16.726C9.31338 16.576 9.74331 16.2903 10.0161 15.882L10.0171 15.8805L11.9672 12.9791C12.0445 13.0984 12.1376 13.2107 12.2491 13.3137C12.7309 13.7584 13.3755 13.8562 13.9652 13.8562H14.7152C15.3048 13.8562 15.9495 13.7584 16.4312 13.3137C16.9295 12.8537 17.0589 12.2075 17.0589 11.5875V4.23746C17.0589 3.61739 16.9295 2.97121 16.4312 2.51122C15.9495 2.06654 15.3048 1.96871 14.7152 1.96871H13.9652C13.3755 1.96871 12.7309 2.06654 12.2491 2.51122C12.1381 2.61368 12.0454 2.72537 11.9684 2.84395L10.6159 1.79684C10.3212 1.52475 9.9391 1.37395 9.64062 1.28867C9.30577 1.193 8.94656 1.14371 8.64008 1.14371H5.79008ZM11.6214 4.70944L9.54855 3.10463L9.50627 3.07189L9.46845 3.03408L9.46844 3.03407C9.46735 3.03323 9.38637 2.97105 9.17703 2.91124C8.98688 2.85691 8.78359 2.83121 8.64008 2.83121H5.79008C5.54231 2.83121 5.2448 2.92844 4.98519 3.11839C4.7262 3.3079 4.56405 3.54543 4.50863 3.7671L4.5012 3.79685L4.49162 3.82598L2.69162 9.30098L2.68827 9.31115L2.68467 9.32124C2.58044 9.61308 2.64207 9.80083 2.71934 9.90569C2.80058 10.0159 2.98085 10.1437 3.31508 10.1437H6.31508C7.26384 10.1437 8.05002 10.959 7.90035 12.0068L7.89878 12.0177L7.89871 12.0177L7.52371 14.4177L7.51956 14.4443L7.51373 14.4705C7.46423 14.6933 7.6371 15.0387 7.93189 15.137L7.94671 15.1419L7.96134 15.1474C8.03968 15.1768 8.17102 15.1842 8.32829 15.1302C8.49123 15.0741 8.58579 14.9853 8.61303 14.9444L8.6148 14.9418L11.6214 10.4685V4.70944ZM13.3089 4.23746C13.3089 4.03008 13.3318 3.90294 13.3554 3.82936C13.3665 3.79456 13.3768 3.77509 13.3826 3.7656C13.388 3.75677 13.3916 3.75316 13.3937 3.7512C13.3995 3.74588 13.5048 3.65621 13.9652 3.65621H14.7152C15.1755 3.65621 15.2809 3.74588 15.2866 3.7512C15.2888 3.75316 15.2924 3.75677 15.2978 3.7656C15.3036 3.77509 15.3138 3.79456 15.325 3.82936C15.3486 3.90294 15.3714 4.03008 15.3714 4.23746V11.5875C15.3714 11.7948 15.3486 11.922 15.325 11.9956C15.3138 12.0304 15.3036 12.0498 15.2978 12.0593C15.2924 12.0682 15.2888 12.0718 15.2866 12.0737C15.2809 12.079 15.1755 12.1687 14.7152 12.1687H13.9652C13.5049 12.1687 13.3995 12.079 13.3937 12.0737C13.3916 12.0718 13.388 12.0682 13.3826 12.0593C13.3768 12.0498 13.3665 12.0304 13.3554 11.9956C13.3318 11.922 13.3089 11.7948 13.3089 11.5875V4.23746Z" fill="black" fill-opacity="0.44"/>
</svg>
