<svg xmlns="http://www.w3.org/2000/svg" xmlns:xlink="http://www.w3.org/1999/xlink" viewBox="0,0,256,256" width="50px" height="50px"><g fill="#ffc66d" fill-rule="nonzero" stroke="none" stroke-width="1" stroke-linecap="butt" stroke-linejoin="miter" stroke-miterlimit="10" stroke-dasharray="" stroke-dashoffset="0" font-family="none" font-weight="none" font-size="none" text-anchor="none" style="mix-blend-mode: normal"><g transform="scale(5.12,5.12)"><path d="M29.98438,1.98633c-0.04844,0.00105 -0.09675,0.00562 -0.14453,0.01367h-22.83984v46h36v-1v-31.83203c0.01785,-0.10799 0.01785,-0.21818 0,-0.32617v-0.25586l-0.19336,-0.19336c-0.05283,-0.0696 -0.11455,-0.13198 -0.18359,-0.18555c-0.00195,-0.00131 -0.0039,-0.00261 -0.00586,-0.00391l-11.82617,-11.82617c-0.0539,-0.07055 -0.11695,-0.1336 -0.1875,-0.1875l-0.18945,-0.18945h-0.25977c-0.05615,-0.00939 -0.113,-0.01396 -0.16992,-0.01367zM9,4h20v12h12v30h-32zM31,5.41406l8.58594,8.58594h-8.58594zM15,22v2h20v-2zM15,28v2h16v-2zM15,34v2h20v-2z"></path></g></g></svg>