<svg width="16" height="16" viewBox="0 0 16 16" fill="none" xmlns="http://www.w3.org/2000/svg">
<path fill-rule="evenodd" clip-rule="evenodd" d="M12.1067 0.426922C12.9483 0.344303 13.7538 0.719906 14.5169 1.483C15.28 2.2461 15.6556 3.05158 15.573 3.89327C15.4942 4.69561 15.0132 5.34074 14.5169 5.837L13.7747 6.57924C13.7677 6.58646 13.7607 6.59352 13.7535 6.60043L9.26358 11.0903L9.25489 11.099L9.25482 11.099C9.08129 11.2669 8.862 11.4074 8.65757 11.5101C8.45479 11.612 8.20638 11.7072 7.95932 11.7425L5.95265 12.0291L5.94883 12.0297L5.94883 12.0297C5.38842 12.1068 4.83339 11.955 4.43817 11.5614C4.04191 11.1668 3.88852 10.6107 3.97097 10.046L3.9712 10.0444L4.25712 8.04302L4.25731 8.04163C4.29235 7.79211 4.38686 7.54217 4.4898 7.33736C4.59304 7.13195 4.7359 6.91002 4.90959 6.73634L9.40064 2.24529C9.40682 2.23889 9.41312 2.23259 9.41953 2.22639L10.1629 1.483C10.6592 0.986742 11.3043 0.505679 12.1067 0.426922ZM9.67263 4.09461L5.97025 7.797C5.94393 7.82331 5.8868 7.89805 5.83004 8.01098C5.77317 8.12412 5.74784 8.21363 5.74272 8.25032L5.74239 8.25273L5.74238 8.25273L5.45571 10.2594L5.4553 10.2623C5.43161 10.4237 5.48164 10.4836 5.49667 10.4986C5.51306 10.5149 5.57766 10.5662 5.74271 10.5439L5.74434 10.5437L7.74719 10.2575C7.78012 10.2528 7.86838 10.228 7.98394 10.1699C8.09456 10.1143 8.17387 10.0565 8.20871 10.0239L11.9063 6.32627C10.9597 5.81536 10.1826 5.03929 9.67263 4.09461ZM13.0325 5.20013C12.0115 4.79036 11.2046 3.98296 10.799 2.96823L11.2236 2.54366C11.634 2.13326 11.9689 1.94766 12.2532 1.91975C12.4982 1.8957 12.886 1.97343 13.4563 2.54366C14.0265 3.1139 14.1042 3.50175 14.0802 3.74673C14.0523 4.03106 13.8667 4.36593 13.4563 4.77634L13.0325 5.20013ZM1.88626 1.88634C2.84572 0.926867 4.25928 0.583333 5.99992 0.583333H7.33325C7.74747 0.583333 8.08325 0.919119 8.08325 1.33333C8.08325 1.74755 7.74747 2.08333 7.33325 2.08333H5.99992C4.40722 2.08333 3.48745 2.40646 2.94692 2.947C2.40638 3.48753 2.08325 4.4073 2.08325 6V10C2.08325 11.5927 2.40638 12.5125 2.94692 13.053C3.48745 13.5935 4.40722 13.9167 5.99992 13.9167H9.99992C11.5926 13.9167 12.5124 13.5935 13.0529 13.053C13.5935 12.5125 13.9166 11.5927 13.9166 10V8.66667C13.9166 8.25245 14.2524 7.91667 14.6666 7.91667C15.0808 7.91667 15.4166 8.25245 15.4166 8.66667V10C15.4166 11.7406 15.073 13.1542 14.1136 14.1137C13.1541 15.0731 11.7406 15.4167 9.99992 15.4167H5.99992C4.25928 15.4167 2.84572 15.0731 1.88626 14.1137C0.926786 13.1542 0.583252 11.7406 0.583252 10V6C0.583252 4.25936 0.926786 2.8458 1.88626 1.88634Z" fill="black"/>
</svg>
