<svg width="16" height="16" viewBox="0 0 16 16" fill="none" xmlns="http://www.w3.org/2000/svg">
<path fill-rule="evenodd" clip-rule="evenodd" d="M12.1064 0.42692C12.9481 0.344301 13.7536 0.719905 14.5167 1.483C15.2798 2.2461 15.6554 3.05158 15.5728 3.89327C15.494 4.69561 15.0129 5.34073 14.5167 5.837L13.7744 6.57924C13.7675 6.58645 13.7604 6.59352 13.7532 6.60043L9.26334 11.0903L9.25464 11.099L9.25457 11.099C9.08105 11.2669 8.86176 11.4074 8.65732 11.5101C8.45455 11.612 8.20614 11.7072 7.95907 11.7425L5.95241 12.0291L5.94859 12.0297L5.94859 12.0297C5.38817 12.1068 4.83315 11.955 4.43792 11.5614C4.04166 11.1667 3.88828 10.6107 3.97073 10.046L3.97096 10.0444L4.25687 8.04302L4.25707 8.04163C4.2921 7.79211 4.38661 7.54217 4.48956 7.33735C4.5928 7.13195 4.73566 6.91002 4.90935 6.73634L9.40039 2.24529C9.40657 2.23888 9.41287 2.23258 9.41929 2.22639L10.1627 1.483C10.6589 0.98674 11.3041 0.505678 12.1064 0.42692ZM9.67239 4.09461L5.97001 7.797C5.94369 7.82331 5.88655 7.89805 5.82979 8.01098C5.77293 8.12411 5.7476 8.21363 5.74248 8.25031L5.74214 8.25273L5.74214 8.25273L5.45547 10.2594L5.45506 10.2623C5.43136 10.4237 5.48139 10.4836 5.49643 10.4986C5.51282 10.5149 5.57742 10.5662 5.74246 10.5439L5.74409 10.5437L7.74694 10.2575C7.77988 10.2528 7.86813 10.228 7.9837 10.1699C8.09431 10.1143 8.17363 10.0565 8.20846 10.0239L11.9061 6.32627C10.9595 5.81536 10.1823 5.03929 9.67239 4.09461ZM13.0322 5.20013C12.0112 4.79036 11.2044 3.98296 10.7988 2.96822L11.2233 2.54366C11.6337 2.13326 11.9686 1.94765 12.2529 1.91975C12.4979 1.8957 12.8858 1.97343 13.456 2.54366C14.0262 3.1139 14.104 3.50175 14.0799 3.74673C14.052 4.03106 13.8664 4.36593 13.456 4.77634L13.0322 5.20013ZM1.88601 1.88633C2.84548 0.926865 4.25904 0.583331 5.99967 0.583331H7.33301C7.74722 0.583331 8.08301 0.919117 8.08301 1.33333C8.08301 1.74754 7.74722 2.08333 7.33301 2.08333H5.99967C4.40698 2.08333 3.4872 2.40646 2.94667 2.94699C2.40614 3.48753 2.08301 4.4073 2.08301 6V10C2.08301 11.5927 2.40614 12.5125 2.94667 13.053C3.4872 13.5935 4.40698 13.9167 5.99967 13.9167H9.99967C11.5924 13.9167 12.5121 13.5935 13.0527 13.053C13.5932 12.5125 13.9163 11.5927 13.9163 10V8.66666C13.9163 8.25245 14.2521 7.91666 14.6663 7.91666C15.0806 7.91666 15.4163 8.25245 15.4163 8.66666V10C15.4163 11.7406 15.0728 13.1542 14.1133 14.1137C13.1539 15.0731 11.7403 15.4167 9.99967 15.4167H5.99967C4.25904 15.4167 2.84548 15.0731 1.88601 14.1137C0.926542 13.1542 0.583008 11.7406 0.583008 10V6C0.583008 4.25936 0.926542 2.8458 1.88601 1.88633Z" fill="white"/>
</svg>
