<svg width="20" height="20" viewBox="0 0 20 20" fill="none" xmlns="http://www.w3.org/2000/svg">
<path d="M9.99993 13.6083C8.00827 13.6083 6.3916 11.9917 6.3916 10C6.3916 8.00834 8.00827 6.39167 9.99993 6.39167C11.9916 6.39167 13.6083 8.00834 13.6083 10C13.6083 11.9917 11.9916 13.6083 9.99993 13.6083ZM9.99993 7.64167C8.69993 7.64167 7.6416 8.7 7.6416 10C7.6416 11.3 8.69993 12.3583 9.99993 12.3583C11.2999 12.3583 12.3583 11.3 12.3583 10C12.3583 8.7 11.2999 7.64167 9.99993 7.64167Z" fill="#292D32"/>
<path d="M9.9999 17.5167C6.86657 17.5167 3.90824 15.6833 1.8749 12.5C0.991569 11.125 0.991569 8.88334 1.8749 7.5C3.91657 4.31667 6.8749 2.48334 9.9999 2.48334C13.1249 2.48334 16.0832 4.31667 18.1166 7.5C18.9999 8.875 18.9999 11.1167 18.1166 12.5C16.0832 15.6833 13.1249 17.5167 9.9999 17.5167ZM9.9999 3.73334C7.30824 3.73334 4.73324 5.35 2.93324 8.175C2.30824 9.15 2.30824 10.85 2.93324 11.825C4.73324 14.65 7.30824 16.2667 9.9999 16.2667C12.6916 16.2667 15.2666 14.65 17.0666 11.825C17.6916 10.85 17.6916 9.15 17.0666 8.175C15.2666 5.35 12.6916 3.73334 9.9999 3.73334Z" fill="black"/>
</svg>
