<svg width="18" height="18" viewBox="0 0 18 18" fill="none" xmlns="http://www.w3.org/2000/svg">
<path fill-rule="evenodd" clip-rule="evenodd" d="M12.1398 3.86586C12.3701 2.75332 11.6543 1.6213 10.6162 1.26697C10.0991 1.0777 9.56156 1.12319 9.12302 1.27394C8.68652 1.42399 8.25661 1.7096 7.98381 2.11789L7.98276 2.11946L6.03276 5.02067C5.95551 4.90146 5.86247 4.7892 5.75096 4.68627C5.26922 4.24159 4.62458 4.14376 4.03491 4.14376H3.28491C2.69524 4.14376 2.0506 4.24159 1.56886 4.68627C1.07054 5.14625 0.941162 5.79243 0.941162 6.41251V13.7625C0.941162 14.3826 1.07054 15.0288 1.56886 15.4887C2.0506 15.9334 2.69524 16.0313 3.28491 16.0313H4.03491C4.62458 16.0313 5.26922 15.9334 5.75096 15.4887C5.86192 15.3863 5.95459 15.2747 6.03161 15.1561L7.38397 16.2031C7.67867 16.4752 8.06077 16.626 8.35925 16.7113C8.69411 16.8069 9.05331 16.8562 9.3598 16.8562H12.2098C12.862 16.8562 13.502 16.616 14.0112 16.2434C14.5127 15.8764 14.9446 15.3381 15.1199 14.6748L16.9083 9.23525C17.1743 8.48049 17.0846 7.69792 16.6391 7.09323C16.1953 6.49098 15.4756 6.16874 14.6848 6.16874H11.78L12.1398 3.86586ZM6.37866 13.2907L8.45132 14.8953L8.49361 14.9281L8.53142 14.9659L8.53143 14.9659C8.53243 14.9666 8.61338 15.0289 8.82285 15.0887C9.013 15.143 9.21629 15.1687 9.3598 15.1687H12.2098C12.4576 15.1687 12.7551 15.0715 13.0147 14.8816C13.2737 14.692 13.4358 14.4545 13.4912 14.2328L13.4987 14.2031L13.5083 14.174L15.3083 8.69897L15.3116 8.68879L15.3152 8.6787C15.4194 8.38686 15.3578 8.19911 15.2805 8.09425C15.1993 7.984 15.019 7.85624 14.6848 7.85624H11.6848C10.736 7.85624 9.94985 7.04091 10.0995 5.99316L10.1011 5.98222L10.1012 5.98223L10.4762 3.58223L10.4803 3.55568L10.4861 3.52945C10.5356 3.30668 10.3628 2.9612 10.068 2.86294L10.0532 2.858L10.0385 2.85252C9.96019 2.82314 9.82885 2.81573 9.67159 2.86979C9.50864 2.9258 9.41409 3.01465 9.38684 3.05552L9.38508 3.05817L6.37866 7.53112V13.2907ZM2.62866 6.41251C2.62866 6.20512 2.65154 6.07798 2.67512 6.00441C2.68627 5.96961 2.69653 5.95013 2.70234 5.94064C2.70774 5.93182 2.71134 5.92821 2.71346 5.92625C2.71922 5.92093 2.82458 5.83126 3.28491 5.83126H4.03491C4.49524 5.83126 4.6006 5.92093 4.60636 5.92625C4.60848 5.92821 4.61209 5.93182 4.61749 5.94064C4.62329 5.95013 4.63355 5.96961 4.6447 6.00441C4.66829 6.07798 4.69116 6.20512 4.69116 6.41251V13.7625C4.69116 13.9699 4.66829 14.097 4.6447 14.1706C4.63355 14.2054 4.62329 14.2249 4.61749 14.2344C4.61209 14.2432 4.60848 14.2468 4.60636 14.2488C4.6006 14.2541 4.49524 14.3438 4.03491 14.3438H3.28491C2.82458 14.3438 2.71922 14.2541 2.71346 14.2488C2.71134 14.2468 2.70774 14.2432 2.70234 14.2344C2.69653 14.2249 2.68627 14.2054 2.67512 14.1706C2.65154 14.097 2.62866 13.9699 2.62866 13.7625V6.41251Z" fill="#5661F6"/>
</svg>
