<svg width="20" height="19" viewBox="0 0 20 19" xmlns="http://www.w3.org/2000/svg">
<path fill-rule="evenodd" clip-rule="evenodd" d="M13.1625 4.76118C13.3945 3.6404 12.6734 2.5 11.6276 2.14304C11.1067 1.95237 10.5651 1.9982 10.1233 2.15006C9.68357 2.30123 9.25046 2.58897 8.97563 3.00032L8.97462 3.00184L7.01017 5.92454C6.93235 5.80445 6.83863 5.69136 6.72629 5.58766C6.24098 5.13969 5.59156 5.04114 4.99753 5.04114H4.24197C3.64793 5.04114 2.99852 5.13969 2.51321 5.58766C2.0112 6.05106 1.88086 6.70202 1.88086 7.32669V14.7311C1.88086 15.3558 2.0112 16.0068 2.51321 16.4702C2.99852 16.9181 3.64793 17.0167 4.24197 17.0167H4.99753C5.59156 17.0167 6.24098 16.9181 6.72629 16.4702C6.83807 16.367 6.93143 16.2545 7.00902 16.1351L8.37139 17.1898C8.66827 17.4639 9.05321 17.6158 9.3539 17.7017C9.69123 17.7981 10.0531 17.8478 10.3619 17.8478H13.233C13.89 17.8478 14.5348 17.6057 15.0477 17.2304C15.5529 16.8607 15.9881 16.3184 16.1647 15.6502L17.9663 10.1704C18.2342 9.41002 18.1439 8.62163 17.695 8.01245C17.248 7.40574 16.5229 7.08112 15.7263 7.08112H12.8L13.1625 4.76118ZM7.35864 14.2558L9.44665 15.8723L9.48925 15.9053L9.52734 15.9434L9.52735 15.9434C9.52847 15.9443 9.61005 16.0069 9.82093 16.0672C10.0125 16.1219 10.2173 16.1478 10.3619 16.1478H13.233C13.4826 16.1478 13.7823 16.0498 14.0438 15.8585C14.3047 15.6676 14.4681 15.4283 14.5239 15.205L14.5314 15.175L14.541 15.1456L16.3544 9.63009L16.3577 9.61984L16.3614 9.60967C16.4664 9.31567 16.4043 9.12653 16.3264 9.02089C16.2446 8.90982 16.063 8.78112 15.7263 8.78112H12.7041C11.7483 8.78112 10.9563 7.95975 11.1071 6.90424L11.1086 6.89322L11.1087 6.89323L11.4865 4.47545L11.4907 4.44871L11.4965 4.42228C11.5464 4.19786 11.3723 3.84982 11.0753 3.75083L11.0604 3.74585L11.0456 3.74033C10.9667 3.71073 10.8344 3.70327 10.676 3.75773C10.5118 3.81416 10.4165 3.90366 10.3891 3.94483L10.3873 3.9475L7.35864 8.45358V14.2558ZM3.58086 7.32669C3.58086 7.11777 3.6039 6.98969 3.62766 6.91557C3.6389 6.88051 3.64923 6.86089 3.65508 6.85133C3.66052 6.84244 3.66415 6.8388 3.66629 6.83683C3.67209 6.83147 3.77823 6.74114 4.24197 6.74114H4.99753C5.46127 6.74114 5.56741 6.83147 5.57321 6.83683C5.57535 6.8388 5.57897 6.84244 5.58442 6.85133C5.59027 6.86089 5.6006 6.88051 5.61184 6.91557C5.63559 6.98969 5.65864 7.11777 5.65864 7.32669V14.7311C5.65864 14.9401 5.63559 15.0681 5.61184 15.1423C5.6006 15.1773 5.59027 15.1969 5.58442 15.2065C5.57897 15.2154 5.57535 15.219 5.57321 15.221C5.56741 15.2264 5.46127 15.3167 4.99753 15.3167H4.24197C3.77823 15.3167 3.67209 15.2264 3.66629 15.221C3.66415 15.219 3.66052 15.2154 3.65508 15.2065C3.64923 15.1969 3.6389 15.1773 3.62766 15.1423C3.6039 15.0681 3.58086 14.9401 3.58086 14.7311V7.32669Z" fill-opacity="0.64"/>
</svg>
