<svg width="16" height="17" viewBox="0 0 16 17" fill="none" xmlns="http://www.w3.org/2000/svg">
<path d="M5.66683 13.1667H5.3335C2.66683 13.1667 1.3335 12.5 1.3335 9.16668V5.83334C1.3335 3.16668 2.66683 1.83334 5.3335 1.83334H10.6668C13.3335 1.83334 14.6668 3.16668 14.6668 5.83334V9.16668C14.6668 11.8333 13.3335 13.1667 10.6668 13.1667H10.3335C10.1268 13.1667 9.92683 13.2667 9.80016 13.4333L8.80016 14.7667C8.36016 15.3533 7.64016 15.3533 7.20016 14.7667L6.20016 13.4333C6.0935 13.2867 5.84683 13.1667 5.66683 13.1667Z" stroke="black" stroke-width="1.5" stroke-miterlimit="10" stroke-linecap="round" stroke-linejoin="round"/>
<path d="M10.6641 7.83333H10.6701" stroke="black" stroke-width="2" stroke-linecap="round" stroke-linejoin="round"/>
<path d="M7.99715 7.83333H8.00314" stroke="black" stroke-width="2" stroke-linecap="round" stroke-linejoin="round"/>
<path d="M5.32967 7.83333H5.33566" stroke="black" stroke-width="2" stroke-linecap="round" stroke-linejoin="round"/>
</svg>
