<svg width="20" height="19" viewBox="0 0 20 19" xmlns="http://www.w3.org/2000/svg">
<path d="M8.48828 14.8889C8.48828 15.72 9.16828 16.4 9.99939 16.4C10.8305 16.4 11.5105 15.72 11.5105 14.8889C11.5105 14.0577 10.8305 13.3777 9.99939 13.3777C9.16828 13.3777 8.48828 14.0577 8.48828 14.8889Z" stroke-width="1.7"/>
<path d="M8.48828 4.31111C8.48828 5.14222 9.16828 5.82222 9.99939 5.82222C10.8305 5.82222 11.5105 5.14222 11.5105 4.31111C11.5105 3.48 10.8305 2.8 9.99939 2.8C9.16828 2.8 8.48828 3.48 8.48828 4.31111Z" stroke-width="1.7"/>
<path d="M8.48828 9.59995C8.48828 10.4311 9.16828 11.1111 9.99939 11.1111C10.8305 11.1111 11.5105 10.4311 11.5105 9.59995C11.5105 8.76884 10.8305 8.08884 9.99939 8.08884C9.16828 8.08884 8.48828 8.76884 8.48828 9.59995Z" stroke-width="1.7"/>
</svg>
