<svg width="18" height="18" viewBox="0 0 18 18" fill="none" xmlns="http://www.w3.org/2000/svg">
<path fill-rule="evenodd" clip-rule="evenodd" d="M8.99897 2.17501C5.22963 2.17501 2.17397 5.23067 2.17397 9.00001C2.17397 12.7694 5.22963 15.825 8.99897 15.825C12.7683 15.825 15.824 12.7694 15.824 9.00001C15.824 5.23067 12.7683 2.17501 8.99897 2.17501ZM0.823975 9.00001C0.823975 4.48508 4.48405 0.825012 8.99897 0.825012C13.5139 0.825012 17.174 4.48508 17.174 9.00001C17.174 13.5149 13.5139 17.175 8.99897 17.175C4.48405 17.175 0.823975 13.5149 0.823975 9.00001ZM12.5904 8.83443C12.9593 8.88768 13.2153 9.22996 13.162 9.59893C13.0382 10.4572 12.656 11.3076 11.9812 11.9823L11.9799 11.9836C10.4949 13.4606 8.18475 13.6099 6.53884 12.4264V12.885C6.53884 13.2578 6.23664 13.56 5.86384 13.56C5.49105 13.56 5.18884 13.2578 5.18884 12.885V10.8825C5.18884 10.5097 5.49105 10.2075 5.86384 10.2075H5.99577C6.00247 10.2074 6.00916 10.2074 6.01584 10.2075H7.86633C8.23912 10.2075 8.54133 10.5097 8.54133 10.8825C8.54133 11.2553 8.23912 11.5575 7.86633 11.5575H7.70175C8.77558 12.1005 10.124 11.9249 11.0273 11.0271C11.4771 10.577 11.7398 10.0026 11.8259 9.40609C11.8791 9.03712 12.2214 8.78118 12.5904 8.83443ZM11.9811 7.7925H10.1314C9.75858 7.7925 9.45637 7.49029 9.45637 7.1175C9.45637 6.7447 9.75858 6.4425 10.1314 6.4425H10.2927C9.21421 5.89875 7.86698 6.07653 6.97123 6.97228C6.52008 7.42343 6.25817 7.99082 6.17215 8.59297C6.11943 8.96202 5.77752 9.21845 5.40847 9.16573C5.03943 9.11301 4.78299 8.7711 4.83571 8.40205C4.95969 7.5342 5.34279 6.69153 6.01664 6.01768C7.49726 4.53706 9.80862 4.39117 11.4589 5.575V5.11501C11.4589 4.74222 11.7611 4.44001 12.1339 4.44001C12.5067 4.44001 12.8089 4.74222 12.8089 5.11501V7.1175C12.8089 7.49029 12.5067 7.7925 12.1339 7.7925H12.003C11.9957 7.79261 11.9884 7.79261 11.9811 7.7925Z" fill="black" fill-opacity="0.8"/>
</svg>
