<svg width="14" height="16" viewBox="0 0 14 16" fill="none" xmlns="http://www.w3.org/2000/svg">
<path d="M1 3.33333H13M10 3.33333L9.79702 2.70183C9.60031 2.08986 9.50196 1.78388 9.31953 1.55765C9.15844 1.35788 8.95156 1.20325 8.71787 1.10794C8.45323 1 8.14221 1 7.52018 1H6.47982C5.85779 1 5.54677 1 5.28213 1.10794C5.04844 1.20325 4.84156 1.35788 4.68047 1.55765C4.49804 1.78388 4.39969 2.08986 4.20298 2.70183L4 3.33333M11.5 3.33333V11.2667C11.5 12.5735 11.5 13.2269 11.2548 13.726C11.039 14.165 10.6948 14.522 10.2715 14.7457C9.79018 15 9.16012 15 7.9 15H6.1C4.83988 15 4.20982 15 3.72852 14.7457C3.30516 14.522 2.96095 14.165 2.74524 13.726C2.5 13.2269 2.5 12.5735 2.5 11.2667V3.33333M8.5 6.44444V11.8889M5.5 6.44444V11.8889" stroke="#131A29" stroke-width="1.5" stroke-linecap="round" stroke-linejoin="round"/>
</svg>
